<svg width="20" height="21" viewBox="0 0 20 21" fill="none" xmlns="http://www.w3.org/2000/svg">
<path d="M16.6085 5.32004C15.8749 4.58147 15.0018 3.99602 14.0399 3.59773C13.0779 3.19944 12.0463 2.99628 11.005 3.00005C9.61303 3.00141 8.24576 3.36825 7.04024 4.06383C5.83471 4.7594 4.83323 5.75931 4.13605 6.9634C3.43887 8.16749 3.0705 9.53354 3.0678 10.9246C3.06511 12.3158 3.4282 13.6832 4.1207 14.89L3 19L7.20263 17.9C8.3631 18.5452 9.66707 18.8891 10.995 18.9C13.106 18.9001 15.1316 18.0668 16.6307 16.5816C18.13 15.0965 18.9815 13.0796 19 10.97C18.993 9.91734 18.7781 8.87638 18.3677 7.90684C17.9573 6.9373 17.3595 6.05824 16.6085 5.32004ZM11.005 17.53C9.82196 17.5308 8.66055 17.213 7.6429 16.61L7.40275 16.46L4.91119 17.12L5.57161 14.69L5.41151 14.44C4.56022 13.0667 4.24252 11.429 4.51857 9.83724C4.79462 8.24549 5.64526 6.8102 6.90934 5.80327C8.17343 4.79633 9.76313 4.28771 11.3773 4.37374C12.9915 4.45976 14.5182 5.13446 15.6679 6.27004C16.9247 7.49822 17.6442 9.17354 17.6692 10.93C17.6534 12.6859 16.9442 14.3645 15.6961 15.6006C14.4482 16.8366 12.7621 17.5301 11.005 17.53ZM14.6173 12.59C14.4171 12.49 13.4465 12.01 13.2664 11.95C13.0863 11.89 12.9462 11.85 12.8161 12.05C12.6204 12.3181 12.4099 12.5751 12.1857 12.82C12.0757 12.96 11.9556 12.97 11.7555 12.82C10.6145 12.3694 9.66387 11.5394 9.06379 10.47C8.85366 10.12 9.26392 10.14 9.64415 9.39004C9.67227 9.33594 9.68688 9.27594 9.68688 9.21504C9.68688 9.15414 9.67227 9.09414 9.64415 9.04004C9.64415 8.94003 9.19387 7.96003 9.03377 7.57003C8.87367 7.18004 8.71357 7.24004 8.58349 7.23004H8.19325C8.09213 7.23159 7.99252 7.2547 7.90106 7.29781C7.80961 7.34091 7.72842 7.40304 7.66291 7.48003C7.43839 7.69821 7.26327 7.96195 7.14935 8.25347C7.03543 8.54499 6.98536 8.85753 7.0025 9.17004C7.06524 9.91814 7.34715 10.6311 7.81301 11.22C8.66574 12.4958 9.83437 13.5293 11.2051 14.22C11.9241 14.6394 12.7596 14.8148 13.5866 14.72C13.862 14.6654 14.1229 14.5535 14.3521 14.3915C14.5814 14.2296 14.7741 14.0212 14.9174 13.78C15.0503 13.4856 15.0922 13.1583 15.0375 12.84C14.9475 12.74 14.8174 12.69 14.6173 12.59Z" fill="#B368FF"/>
</svg>
