<svg width="20" height="18" viewBox="0 0 20 18" fill="none" xmlns="http://www.w3.org/2000/svg">
<path d="M20 2.51224C19.2641 2.85348 18.4732 3.08454 17.6437 3.18783C18.4908 2.65685 19.1412 1.81599 19.4477 0.813695C18.6547 1.30566 17.7768 1.66297 16.8419 1.85501C16.0935 1.02104 15.0269 0.5 13.8469 0.5C11.5805 0.5 9.74359 2.42119 9.74359 4.79151C9.74359 5.12816 9.78017 5.45562 9.84966 5.76932C6.43988 5.59028 3.41636 3.88179 1.39215 1.28577C1.03881 1.91928 0.8369 2.65685 0.8369 3.44338C0.8369 4.93229 1.56114 6.24598 2.66213 7.01569C1.98983 6.9935 1.35704 6.80069 0.803248 6.47858C0.803248 6.49617 0.803248 6.51454 0.803248 6.5329C0.803248 8.61247 2.21734 10.347 4.09452 10.741C3.74995 10.8389 3.38783 10.8917 3.01328 10.8917C2.74919 10.8917 2.49168 10.865 2.24149 10.8145C2.76382 12.5191 4.27887 13.7601 6.07484 13.7946C4.67025 14.9453 2.90135 15.6316 0.978821 15.6316C0.647427 15.6316 0.321153 15.6109 0 15.5719C1.81572 16.7892 3.97235 17.5 6.28992 17.5C13.8374 17.5 17.9641 10.9606 17.9641 5.28959C17.9641 5.10367 17.9604 4.91852 17.9524 4.73412C18.7542 4.12892 19.4499 3.37299 20 2.51224Z" fill="#F4F7F6"/>
</svg>
