<svg width="101" height="100" viewBox="0 0 101 100" fill="none" xmlns="http://www.w3.org/2000/svg">
<path fill-rule="evenodd" clip-rule="evenodd" d="M6.5 16H94.5V70H90.5V80H86.5V90H14.5V80H10.5V70H6.5V16ZM18.5 70H82.5V72H18.5V70ZM14.5 24V62H57.5V58H51.5V54H57.5V52H51.5V44H57.5V30H65.5H70.5C76.5751 30 81.5 34.9249 81.5 41C81.5 47.0751 76.5751 52 70.5 52H65.5V54H74.5V58H65.5V62H86.5V24H14.5ZM22.5 80V82H78.5V80H22.5ZM70.5 44H65.5V38H70.5C72.1569 38 73.5 39.3431 73.5 41C73.5 42.6569 72.1569 44 70.5 44ZM39.5 54H19.5V58H39.5V54ZM19.5 30H27.5V38H19.5V30Z" fill="#B368FF"/>
</svg>
