<svg width="20" height="21" viewBox="0 0 20 21" fill="none" xmlns="http://www.w3.org/2000/svg">
<path d="M5.9338 12.5775L2.32038 11.4179C2.32038 11.4179 1.88853 11.2453 2.02759 10.854C2.05621 10.7733 2.11396 10.7046 2.28669 10.5866C3.08733 10.0369 17.1058 5.07398 17.1058 5.07398C17.1058 5.07398 17.5017 4.94261 17.7351 5.02999C17.7928 5.0476 17.8448 5.08 17.8857 5.12388C17.9265 5.16776 17.9548 5.22155 17.9677 5.27973C17.9929 5.38251 18.0034 5.48825 17.999 5.59389C17.9979 5.68528 17.9867 5.76999 17.9782 5.90282C17.8928 7.25971 15.3377 17.3866 15.3377 17.3866C15.3377 17.3866 15.1849 17.9792 14.6372 17.9995C14.5026 18.0038 14.3685 17.9813 14.2429 17.9335C14.1173 17.8856 14.0028 17.8133 13.9061 17.7209C12.8313 16.8103 9.11649 14.3513 8.29561 13.8104C8.2771 13.798 8.2615 13.7818 8.24988 13.763C8.23826 13.7441 8.23088 13.723 8.22824 13.7011C8.21677 13.6441 8.2797 13.5735 8.2797 13.5735C8.2797 13.5735 14.7482 7.91014 14.9203 7.31561C14.9337 7.26955 14.8833 7.24683 14.8157 7.267C14.3861 7.42268 6.93839 12.0553 6.11641 12.5666C6.05724 12.5842 5.9947 12.588 5.9338 12.5775Z" fill="#B368FF"/>
</svg>
