<svg width="21" height="14" fill="none" xmlns="http://www.w3.org/2000/svg"><path fill-rule="evenodd" clip-rule="evenodd" d="M10.274 13.446h1.255s.38-.046.573-.272c.178-.208.173-.598.173-.598s-.025-1.828.757-2.097c.77-.266 1.76 1.766 2.81 2.548.792.59 1.395.46 1.395.46l2.804-.042s1.468-.098.772-1.35c-.057-.101-.405-.925-2.086-2.617-1.758-1.771-1.522-1.485.596-4.548 1.29-1.866 1.805-3.005 1.644-3.492-.154-.465-1.102-.342-1.102-.342l-3.158.02s-.234-.034-.407.079c-.17.11-.28.367-.28.367s-.5 1.444-1.165 2.671c-1.406 2.591-1.969 2.728-2.199 2.567-.535-.375-.4-1.506-.4-2.31 0-2.51.35-3.558-.684-3.828-.343-.09-.596-.15-1.474-.159-1.127-.013-2.08.004-2.62.29-.36.191-.636.617-.467.64.208.031.681.139.932.509.324.478.312 1.55.312 1.55s.186 2.955-.434 3.322c-.426.252-1.01-.262-2.263-2.612A22.761 22.761 0 0 1 4.43 1.667s-.093-.248-.26-.382c-.203-.161-.486-.212-.486-.212l-3 .024s-.45.013-.616.226c-.148.19-.012.58-.012.58s2.35 5.963 5.01 8.97c2.438 2.755 5.207 2.573 5.207 2.573Z" fill="#F4F7F6"/></svg>