<svg width="20" height="18" fill="none" xmlns="http://www.w3.org/2000/svg"><path d="M20 2.512a7.916 7.916 0 0 1-2.356.676A4.275 4.275 0 0 0 19.448.814c-.793.492-1.671.849-2.606 1.041A4.017 4.017 0 0 0 13.847.5C11.58.5 9.744 2.421 9.744 4.792c0 .336.036.664.106.977-3.41-.179-6.434-1.887-8.458-4.483a4.42 4.42 0 0 0-.555 2.157c0 1.49.724 2.803 1.825 3.573a3.947 3.947 0 0 1-1.859-.537v.054c0 2.08 1.414 3.814 3.292 4.208a3.948 3.948 0 0 1-1.854.074c.523 1.704 2.038 2.945 3.834 2.98A8.009 8.009 0 0 1 0 15.572 11.249 11.249 0 0 0 6.29 17.5c7.547 0 11.674-6.54 11.674-12.21 0-.186-.004-.371-.012-.556A8.561 8.561 0 0 0 20 2.512Z" fill="#F4F7F6"/></svg>