<svg width="21" height="14" viewBox="0 0 21 14" fill="none" xmlns="http://www.w3.org/2000/svg">
<path fill-rule="evenodd" clip-rule="evenodd" d="M10.2743 13.4462H11.5292C11.5292 13.4462 11.9085 13.4004 12.1023 13.1741C12.2805 12.9663 12.2746 12.5756 12.2746 12.5756C12.2746 12.5756 12.2502 10.7478 13.0318 10.479C13.8024 10.2134 14.7918 12.245 15.8411 13.0265C16.6339 13.6179 17.2373 13.4879 17.2373 13.4879L20.0414 13.4454C20.0414 13.4454 21.5086 13.3475 20.8127 12.0958C20.7558 11.9938 20.4075 11.1698 18.7273 9.47759C16.9688 7.70674 17.2047 7.99319 19.3226 4.92971C20.6123 3.06418 21.1285 1.9248 20.9673 1.43776C20.8134 0.973182 19.8647 1.09595 19.8647 1.09595L16.7071 1.11681C16.7071 1.11681 16.4727 1.08231 16.2996 1.19464C16.1303 1.30456 16.0208 1.56213 16.0208 1.56213C16.0208 1.56213 15.5209 3.00561 14.8547 4.23325C13.4489 6.82412 12.8861 6.96053 12.6562 6.80005C12.1215 6.42534 12.2554 5.29399 12.2554 4.49001C12.2554 1.97936 12.6066 0.932261 11.5721 0.661859C11.229 0.571993 10.976 0.512617 10.0983 0.502988C8.9713 0.49015 8.0181 0.507 7.47828 0.793449C7.11888 0.984415 6.84158 1.40968 7.01092 1.43375C7.21945 1.46424 7.69199 1.57176 7.94267 1.94165C8.26657 2.41987 8.25474 3.49185 8.25474 3.49185C8.25474 3.49185 8.44109 6.44701 7.82066 6.8145C7.39545 7.06644 6.81126 6.55212 5.55783 4.20195C4.91595 2.99838 4.43085 1.66724 4.43085 1.66724C4.43085 1.66724 4.33768 1.4185 4.17055 1.28531C3.96793 1.12403 3.68545 1.07268 3.68545 1.07268L0.684611 1.09675C0.684611 1.09675 0.234264 1.11039 0.0686185 1.32302C-0.0785394 1.51238 0.0567867 1.90314 0.0567867 1.90314C0.0567867 1.90314 2.40614 7.86641 5.06607 10.8721C7.5049 13.6275 10.2743 13.4462 10.2743 13.4462Z" fill="#F4F7F6"></path>
</svg>
