<svg xmlns="http://www.w3.org/2000/svg" version="1.1" id="Слой_1" x="0" y="0" viewBox="0 0 143.8 157.7" style="enable-background:new 0 0 143.8 157.7" xml:space="preserve"><script/><style>.st0{fill:none;stroke:#aaa4b2;stroke-width:1.7px;stroke-linecap:round;stroke-linejoin:round;stroke-miterlimit:10}</style><path class="st0" d="M.9 76.8s-.7 26 12.9 23C31 95.8 70.4.9 70.4.9S58 90.7 52.7 90.5c-5.3-.2-6.1-52.7-20-39s19.8 36.3 43.9 1.9l-9 33.3s5.9-12.6 12.2-14.3 14.1-17.9 14.1-17.9-14.1 31.2-5.5 29.9C97 83.1 102.5 68 102.5 68"/><path class="st0" d="M116.9 58.6s2.4-5.9-3-5.1c-13.8 2.1-15.1 31.2-6.5 29.3 12.8-2.9 44.7-50 31.4-45.3-3.4 1.2-26.8 121.2-47.4 119.3S113.5 86.7 143 56.7"/><script/></svg>